<svg width="25" height="25" viewBox="0 0 25 25" fill="none" xmlns="http://www.w3.org/2000/svg">
<g clip-path="url(#clip0_593_4)">
<path fill-rule="evenodd" clip-rule="evenodd" d="M13.6424 0.251247C14.0958 0.0752914 14.5794 -0.00959413 15.0656 0.00144142C15.5518 0.012477 16.0311 0.119217 16.476 0.315562C16.9209 0.511887 17.3228 0.793951 17.6586 1.14564C18.3589 1.87875 18.7498 2.85354 18.7499 3.86738C18.7501 4.88123 18.3596 5.85615 17.6596 6.58952L17.6563 6.59293L12.5 11.9299L7.34029 6.5895C6.64038 5.85618 6.24988 4.8814 6.24988 3.86768C6.24988 2.85395 6.64039 1.87919 7.3403 1.14587C7.73064 0.737329 8.20956 0.423236 8.73987 0.228205C9.27018 0.0331734 9.83809 -0.0379164 10.4001 0.0203785C10.9621 0.0786734 11.5034 0.264807 11.9823 0.564527C12.1666 0.679817 12.3398 0.810737 12.5001 0.955521C12.8345 0.65332 13.2216 0.414548 13.6424 0.251247ZM12.4239 1.02627C12.4242 1.02606 12.4244 1.02585 12.4246 1.02564L12.9632 1.59152L12.4233 1.02691C12.4235 1.0267 12.4237 1.02648 12.4239 1.02627ZM17.0936 1.68533L16.5287 2.2248C16.3346 2.02154 16.1023 1.85852 15.8452 1.74505C15.5881 1.63159 15.3111 1.56991 15.0302 1.56353C14.7492 1.55715 14.4697 1.60621 14.2077 1.70789C13.9457 1.80957 13.7063 1.96188 13.5032 2.15613L13.5019 2.1574C13.372 2.28098 13.2586 2.42068 13.1642 2.57307L12.5011 3.64412L11.8363 2.5741C11.664 2.29666 11.4304 2.06234 11.1535 1.88908C10.8766 1.71583 10.5638 1.60823 10.2389 1.57453C9.91402 1.54083 9.58574 1.58193 9.27919 1.69467C8.97277 1.80736 8.69618 1.98865 8.4706 2.22467M17.0936 1.68533L16.5287 2.2248C16.9513 2.66729 17.1873 3.25574 17.1875 3.86766C17.1876 4.47886 16.9524 5.06662 16.5308 5.50908L12.5 9.68117L8.46906 5.50908C8.04753 5.06659 7.81237 4.47887 7.81237 3.86768C7.81237 3.25588 8.04828 2.6673 8.4706 2.22467" fill="#261F18"/>
<path fill-rule="evenodd" clip-rule="evenodd" d="M2.34374 8.59386C2.13654 8.59386 1.93782 8.67617 1.79131 8.82269C1.6448 8.9692 1.56249 9.16791 1.56249 9.37511V16.3204C1.56238 16.6934 1.69573 17.0544 1.93844 17.3377C1.93841 17.3377 1.93847 17.3377 1.93844 17.3377L6.24996 22.3673V25H4.68747V22.9453L0.752166 18.3546C0.266687 17.7881 -0.000166721 17.0665 7.81467e-08 16.3204V9.37511C7.81467e-08 8.75351 0.246929 8.15737 0.686465 7.71784C1.126 7.2783 1.72214 7.03137 2.34374 7.03137C2.96533 7.03137 3.56147 7.2783 4.00101 7.71784C4.44054 8.15737 4.68747 8.75351 4.68747 9.37511V14.3884H3.12498V9.37511C3.12498 9.16791 3.04267 8.9692 2.89616 8.82269C2.74965 8.67617 2.55094 8.59386 2.34374 8.59386Z" fill="#261F18"/>
<path fill-rule="evenodd" clip-rule="evenodd" d="M3.74458 13.1193C4.20194 12.6623 4.82209 12.4055 5.46869 12.4055C6.1153 12.4055 6.73544 12.6623 7.19281 13.1193L10.803 16.7296C10.803 16.7295 10.8031 16.7296 10.803 16.7296C11.0933 17.0198 11.3237 17.3644 11.4808 17.7437C11.6379 18.1229 11.7187 18.5294 11.7187 18.9399C11.7187 18.9399 11.7187 18.9399 11.7187 18.9399V25H10.1562V18.9399C10.1562 18.7346 10.1158 18.5313 10.0372 18.3416C9.95867 18.152 9.84352 17.9797 9.69836 17.8346L6.08831 14.2245C6.08826 14.2245 6.08837 14.2246 6.08831 14.2245C5.92396 14.0604 5.70099 13.968 5.46869 13.968C5.2364 13.968 5.0136 14.0602 4.84925 14.2244C4.68509 14.3887 4.59289 14.6115 4.59289 14.8438C4.59289 15.0761 4.68509 15.2989 4.84925 15.4633L8.13603 18.75L7.03118 19.8549L3.7444 16.5681C3.28733 16.1107 3.0304 15.4904 3.0304 14.8438C3.0304 14.1972 3.28751 13.5767 3.74458 13.1193Z" fill="#261F18"/>
<path fill-rule="evenodd" clip-rule="evenodd" d="M20.9988 7.71784C21.4384 7.2783 22.0345 7.03137 22.6561 7.03137C23.2777 7.03137 23.8738 7.2783 24.3134 7.71784C24.7529 8.15737 24.9998 8.75351 24.9998 9.37511V16.3201C24.9998 16.3201 24.9998 16.3202 24.9998 16.3201C25 17.0662 24.7332 17.788 24.2478 18.3545L20.3124 22.9453V25H18.7499V22.3673L23.0613 17.3378C23.0613 17.3378 23.0613 17.3378 23.0613 17.3378C23.304 17.0545 23.4375 16.6937 23.4374 16.3206V9.37511C23.4374 9.16791 23.355 8.9692 23.2085 8.82269C23.062 8.67617 22.8633 8.59386 22.6561 8.59386C22.4489 8.59386 22.2502 8.67617 22.1037 8.82269C21.9572 8.9692 21.8749 9.16791 21.8749 9.37511V14.3884H20.3124V9.37511C20.3124 8.75351 20.5593 8.15737 20.9988 7.71784Z" fill="#261F18"/>
<path fill-rule="evenodd" clip-rule="evenodd" d="M18.9115 14.2245L15.3015 17.8345C15.1563 17.9796 15.0411 18.152 14.9626 18.3416C14.884 18.5313 14.8436 18.7345 14.8436 18.9398V25H13.2811V18.94C13.2811 18.9399 13.2811 18.94 13.2811 18.94C13.2811 18.5295 13.3619 18.1229 13.519 17.7437C13.6761 17.3644 13.9064 17.0199 14.1967 16.7297C14.1966 16.7297 14.1967 16.7296 14.1967 16.7297L17.8068 13.1195C18.2642 12.6624 18.8845 12.4055 19.5311 12.4055C20.1777 12.4055 20.7978 12.6623 21.2552 13.1193C21.7123 13.5767 21.9694 14.1972 21.9694 14.8438C21.9694 15.4904 21.7126 16.1106 21.2556 16.5679L17.9686 19.8549L16.8638 18.75L20.1504 15.4634C20.1503 15.4635 20.1504 15.4634 20.1504 15.4634C20.3145 15.2991 20.4069 15.0761 20.4069 14.8438C20.4069 14.6115 20.3147 14.3887 20.1505 14.2243C19.9861 14.0602 19.7634 13.968 19.5311 13.968C19.2988 13.968 19.0758 14.0604 18.9115 14.2245Z" fill="#261F18"/>
</g>
<defs>
<clipPath id="clip0_593_4">
<rect width="24.9999" height="25" fill="white"/>
</clipPath>
</defs>
</svg>
