<svg width="28" height="27" viewBox="0 0 28 27" fill="none" xmlns="http://www.w3.org/2000/svg">
<g filter="url(#filter0_b_162_12)">
<rect y="0.780029" width="27.5466" height="26" rx="3" fill="white" fill-opacity="0.34"/>
<path fill-rule="evenodd" clip-rule="evenodd" d="M10.8419 7.11079C10.3263 6.97587 9.78768 6.95405 9.26291 7.0468C8.73813 7.13956 8.23962 7.34471 7.80156 7.64818C7.36349 7.95165 6.99624 8.34627 6.72498 8.80498C6.45372 9.26368 6.28487 9.77563 6.23 10.3057C6.17513 10.8358 6.23555 11.3715 6.40711 11.876C6.57843 12.3799 6.85654 12.8407 7.22241 13.2272C7.22292 13.2277 7.22342 13.2282 7.22393 13.2288L13.7733 20.0345L20.3227 13.2288C20.3232 13.2282 20.3237 13.2277 20.3242 13.2272C20.6901 12.8407 20.9682 12.3798 21.1395 11.876C21.3111 11.3715 21.3715 10.8358 21.3166 10.3057C21.2618 9.77563 21.0929 9.26368 20.8217 8.80498C20.5504 8.34627 20.1832 7.95165 19.7451 7.64818C19.307 7.34471 18.8085 7.13956 18.2837 7.0468C17.759 6.95405 17.2203 6.97587 16.7048 7.11079C16.1892 7.24571 15.709 7.49052 15.2969 7.82845C14.8848 8.16637 14.5507 8.58941 14.3175 9.06857L13.7733 10.1863L13.2292 9.06857C12.9959 8.58941 12.6618 8.16637 12.2498 7.82845C11.8377 7.49052 11.3574 7.24571 10.8419 7.11079ZM9.05223 5.85492C9.74887 5.73179 10.4639 5.76076 11.1483 5.93986C11.8327 6.11896 12.4702 6.44395 13.0173 6.89255C13.2979 7.12268 13.5513 7.38255 13.7733 7.66696C13.9954 7.38255 14.2488 7.12268 14.5294 6.89255C15.0764 6.44395 15.714 6.11896 16.3984 5.93986C17.0828 5.76076 17.7978 5.73179 18.4944 5.85492C19.1911 5.97805 19.8528 6.25039 20.4343 6.65324C21.0159 7.0561 21.5034 7.57995 21.8635 8.18888C22.2236 8.79781 22.4477 9.47742 22.5206 10.1811C22.5934 10.8848 22.5132 11.5959 22.2855 12.2656C22.0577 12.9354 21.6878 13.548 21.2011 14.0615L21.198 14.0648L13.7733 21.78L6.34549 14.0615C5.85881 13.548 5.48892 12.9354 5.26118 12.2656C5.03344 11.5959 4.95324 10.8848 5.02607 10.1811C5.09891 9.47742 5.32306 8.79781 5.68316 8.18888C6.04325 7.57995 6.53078 7.0561 7.1123 6.65324C7.69383 6.25039 8.3556 5.97805 9.05223 5.85492Z" fill="#1E3643"/>
</g>
<defs>
<filter id="filter0_b_162_12" x="-7" y="-6.21997" width="41.5467" height="40" filterUnits="userSpaceOnUse" color-interpolation-filters="sRGB">
<feFlood flood-opacity="0" result="BackgroundImageFix"/>
<feGaussianBlur in="BackgroundImageFix" stdDeviation="3.5"/>
<feComposite in2="SourceAlpha" operator="in" result="effect1_backgroundBlur_162_12"/>
<feBlend mode="normal" in="SourceGraphic" in2="effect1_backgroundBlur_162_12" result="shape"/>
</filter>
</defs>
</svg>
