<svg width="12" height="12" viewBox="0 0 12 12" fill="none" xmlns="http://www.w3.org/2000/svg">
<path fill-rule="evenodd" clip-rule="evenodd" d="M1.5 0.375H10.5V1.125H1.5V0.375Z" fill="#261F18"/>
<path fill-rule="evenodd" clip-rule="evenodd" d="M1.5 10.875H10.5V11.625H1.5V10.875Z" fill="#261F18"/>
<path fill-rule="evenodd" clip-rule="evenodd" d="M9.00001 2.35462V0.75H9.75001V2.35462C9.75002 2.8466 9.61176 3.32867 9.35102 3.74587C9.35102 3.74587 9.35102 3.74587 9.35102 3.74587L7.94223 6L9.35102 8.25413C9.61176 8.67132 9.75002 9.1534 9.75001 9.64538V11.25H9.00001V9.64537C9.00002 9.29396 8.90126 8.94962 8.71501 8.65162L7.0578 6L8.71501 3.34838C8.90126 3.05038 9.00002 2.70604 9.00001 2.35462Z" fill="#261F18"/>
<path fill-rule="evenodd" clip-rule="evenodd" d="M3 0.75V2.35463C3 2.70604 3.09875 3.05038 3.285 3.34838L4.94221 6L3.285 8.65162C3.09876 8.94962 3 9.29396 3 9.64537V11.25H2.25V9.64538C2.25 9.1534 2.38825 8.67132 2.649 8.25413L4.05779 6L2.649 3.74587C2.649 3.74587 2.649 3.74587 2.649 3.74587C2.38826 3.32868 2.25 2.8466 2.25 2.35462V0.75H3Z" fill="#261F18"/>
<path d="M4.125 9.75003V9.6454C4.12462 9.50511 4.1636 9.36752 4.2375 9.24828L5.682 6.93753C5.71563 6.88326 5.76256 6.83848 5.81834 6.80743C5.87412 6.77637 5.93691 6.76007 6.00075 6.76007C6.0646 6.76007 6.12738 6.77637 6.18316 6.80743C6.23894 6.83848 6.28587 6.88326 6.3195 6.93753L7.7625 9.2479C7.83647 9.36726 7.87545 9.50498 7.875 9.6454V9.75003H4.125Z" fill="#261F18"/>
</svg>
