<svg width="26" height="26" viewBox="0 0 26 26" fill="none" xmlns="http://www.w3.org/2000/svg">
<g clip-path="url(#clip0_1_221)">
<path fill-rule="evenodd" clip-rule="evenodd" d="M7.05685 13.4406L10.9936 23.1223C11.1229 23.4423 11.3737 23.6979 11.6912 23.8332C12.0084 23.9683 12.3663 23.9722 12.6864 23.8441C13.0059 23.715 13.2613 23.4645 13.3964 23.1474C13.5316 22.8302 13.5354 22.4724 13.407 22.1524C13.4069 22.1523 13.407 22.1525 13.407 22.1524L10.8291 15.7624L12.2782 15.1778L14.8569 21.5699C15.1397 22.2741 15.1314 23.0618 14.8339 23.76C14.5364 24.4582 13.9739 25.0097 13.2701 25.2935L12.9779 24.5689L13.2687 25.294C12.5645 25.5765 11.7769 25.5681 11.0788 25.2707C10.381 24.9735 9.82954 24.4117 9.54521 23.7086C9.54507 23.7083 9.54493 23.7079 9.54479 23.7076L5.60938 14.0292L7.05685 13.4406Z" fill="#261F18"/>
<path fill-rule="evenodd" clip-rule="evenodd" d="M18.5823 4.14783C17.8696 5.57327 17.4062 7.59716 17.4062 9.87537C17.4062 12.1536 17.8696 14.1775 18.5823 15.6029C19.3184 17.0751 20.1907 17.6882 20.922 17.6882C21.6532 17.6882 22.5256 17.0751 23.2617 15.6029C23.9744 14.1775 24.4377 12.1536 24.4377 9.87537C24.4377 7.59716 23.9744 5.57327 23.2617 4.14783C22.5256 2.67566 21.6532 2.06256 20.922 2.06256C20.1907 2.06256 19.3184 2.67566 18.5823 4.14783ZM17.1847 3.44903C18.0039 1.81075 19.28 0.5 20.922 0.5C22.5639 0.5 23.8401 1.81075 24.6592 3.44903C25.5018 5.13404 26.0003 7.40718 26.0003 9.87537C26.0003 12.3435 25.5018 14.6167 24.6592 16.3017C23.8401 17.94 22.5639 19.2507 20.922 19.2507C19.28 19.2507 18.0039 17.94 17.1847 16.3017C16.3422 14.6167 15.8437 12.3435 15.8437 9.87537C15.8437 7.40718 16.3422 5.13404 17.1847 3.44903Z" fill="#261F18"/>
<path fill-rule="evenodd" clip-rule="evenodd" d="M18.9688 6.75024H19.7501C20.5789 6.75024 21.3738 7.0795 21.9599 7.66557C22.5459 8.25165 22.8752 9.04653 22.8752 9.87537C22.8752 10.7042 22.5459 11.4991 21.9599 12.0852C21.3738 12.6712 20.5789 13.0005 19.7501 13.0005H18.9688V11.4379H19.7501C20.1645 11.4379 20.5619 11.2733 20.855 10.9803C21.148 10.6872 21.3126 10.2898 21.3126 9.87537C21.3126 9.46095 21.148 9.0635 20.855 8.77047C20.5619 8.47743 20.1645 8.31281 19.7501 8.31281H18.9688V6.75024Z" fill="#261F18"/>
<path fill-rule="evenodd" clip-rule="evenodd" d="M3.90576 5.99962L19.8254 0.707886L20.3183 2.19067L4.3413 7.50147L4.31111 7.5089C3.79486 7.63598 3.3385 7.93781 3.01951 8.36313C2.70052 8.78846 2.53854 9.31107 2.56109 9.84225L2.5625 9.87539L2.56109 9.90853C2.53854 10.4397 2.70052 10.9623 3.01951 11.3876C3.3385 11.813 3.79486 12.1148 4.31111 12.2419L4.3413 12.2493L20.3183 17.5601L19.8254 19.0429L3.90575 13.7512C3.05224 13.5334 2.29837 13.0304 1.76946 12.3252C1.24061 11.6201 0.968864 10.7556 0.998676 9.87539C0.968864 8.99515 1.24061 8.13073 1.76946 7.4256C2.29837 6.72038 3.05225 6.21742 3.90576 5.99962Z" fill="#261F18"/>
</g>
<defs>
<clipPath id="clip0_1_221">
<rect width="26.0002" height="25" fill="white" transform="translate(0 0.5)"/>
</clipPath>
</defs>
</svg>
