<svg width="26" height="20" viewBox="0 0 26 20" fill="none" xmlns="http://www.w3.org/2000/svg">
<g clip-path="url(#clip0_593_22)">
<path d="M6 4C4.81331 4 3.65328 4.35189 2.66658 5.01118C1.67989 5.67047 0.910851 6.60754 0.456725 7.7039C0.00259969 8.80026 -0.11622 10.0067 0.115291 11.1705C0.346802 12.3344 0.918247 13.4035 1.75736 14.2426C2.59648 15.0818 3.66558 15.6532 4.82946 15.8847C5.99335 16.1162 7.19975 15.9974 8.2961 15.5433C9.39246 15.0892 10.3295 14.3201 10.9888 13.3334C11.6481 12.3467 12 11.1867 12 10C11.9954 8.41013 11.3617 6.88671 10.2375 5.7625C9.11329 4.63828 7.58987 4.00465 6 4V4ZM9 10.375H6.375V13H5.625V10.375H3V9.625H5.625V7H6.375V9.625H9V10.375Z" fill="#261F18"/>
</g>
<g clip-path="url(#clip1_593_22)">
<path d="M17.0938 5.84375H20.6562M12.3438 5.84375L12.9375 6.4375L14.7188 4.65625M17.0938 10H20.6562M12.3438 10L12.9375 10.5938L14.7188 8.8125M17.0938 14.1562H20.6562M12.3438 14.1562H13.5312M9.375 1.09375H23.625V18.9062H9.375V1.09375Z" stroke="#261F18" stroke-miterlimit="10" stroke-linecap="square"/>
</g>
<defs>
<clipPath id="clip0_593_22">
<rect width="12" height="12" fill="white" transform="translate(0 4)"/>
</clipPath>
<clipPath id="clip1_593_22">
<rect width="19" height="19" fill="white" transform="translate(7 0.5)"/>
</clipPath>
</defs>
</svg>
