<svg width="25" height="24" viewBox="0 0 25 24" fill="none" xmlns="http://www.w3.org/2000/svg">
<path fill-rule="evenodd" clip-rule="evenodd" d="M12.5 12.5C9.91117 12.5 7.8125 14.5987 7.8125 17.1875C7.8125 19.7763 9.91117 21.875 12.5 21.875C15.0888 21.875 17.1875 19.7763 17.1875 17.1875C17.1875 14.5987 15.0888 12.5 12.5 12.5ZM6.25 17.1875C6.25 13.7357 9.04822 10.9375 12.5 10.9375C15.9518 10.9375 18.75 13.7357 18.75 17.1875C18.75 20.6393 15.9518 23.4375 12.5 23.4375C9.04822 23.4375 6.25 20.6393 6.25 17.1875Z" fill="#261F18"/>
<path fill-rule="evenodd" clip-rule="evenodd" d="M13.2812 13.2812V16.4062H16.4062V17.9688H11.7188V13.2812H13.2812Z" fill="#261F18"/>
<path fill-rule="evenodd" clip-rule="evenodd" d="M0 0.78125H9.81734L12.1611 4.6875H25V20.3125C25 21.1413 24.6708 21.9362 24.0847 22.5222C23.4987 23.1083 22.7038 23.4375 21.875 23.4375H17.9688V21.875H21.875C22.2894 21.875 22.6868 21.7104 22.9799 21.4174C23.2729 21.1243 23.4375 20.7269 23.4375 20.3125V6.25H11.2764L8.93266 2.34375H1.5625V20.3125C1.5625 20.7269 1.72712 21.1243 2.02015 21.4174C2.31317 21.7104 2.7106 21.875 3.125 21.875H7.03125V23.4375H3.125C2.2962 23.4375 1.50134 23.1083 0.915291 22.5222C0.32924 21.9362 0 21.1413 0 20.3125V0.78125Z" fill="#261F18"/>
</svg>
