<svg width="17" height="20" viewBox="0 0 17 20" fill="none" xmlns="http://www.w3.org/2000/svg">
<path fill-rule="evenodd" clip-rule="evenodd" d="M2.5668 7.58985L0 10.628L0.675203 11.1985L9.23183 1.07044L8.55662 0.5L5.98945 3.53863L4.30121 2.11234L0.878564 6.16355L2.5668 7.58985ZM3.13724 6.91465L5.41901 4.21384L4.40597 3.35798L2.12421 6.05879L3.13724 6.91465ZM3.33035 17.7322V9.33501H2.44644V17.7322C2.44644 18.201 2.63269 18.6507 2.96422 18.9822C3.29575 19.3138 3.74541 19.5 4.21426 19.5H11.2856C11.7544 19.5 12.2041 19.3138 12.5356 18.9822C12.8671 18.6507 13.0534 18.201 13.0534 17.7322V9.33501H12.1695V17.7322C12.1695 17.9666 12.0764 18.1914 11.9106 18.3572C11.7448 18.523 11.52 18.6161 11.2856 18.6161H4.21426C3.97983 18.6161 3.75501 18.523 3.58924 18.3572C3.42348 18.1914 3.33035 17.9666 3.33035 17.7322ZM8.19168 16.8484V11.5449H7.30776V16.8484H8.19168ZM5.98135 11.5449V16.8484H5.09744V11.5449H5.98135ZM10.4006 16.8484V11.5449H9.5167V16.8484H10.4006ZM14.151 1.23745C13.955 1.35 13.7883 1.50739 13.6639 1.69731C13.5395 1.88723 13.4608 2.10453 13.4339 2.33225C13.2232 2.24168 12.9957 2.2012 12.769 2.21397C12.5423 2.22673 12.3227 2.29241 12.1272 2.40586C11.8759 2.55007 11.6735 2.76659 11.545 3.02854C11.4165 3.29049 11.3677 3.58635 11.4046 3.8794C11.4414 4.17246 11.5623 4.4498 11.7523 4.67703C11.9423 4.90426 12.193 5.07137 12.4733 5.15762L15.4317 6.04749C15.4548 6.05444 15.4789 6.05665 15.5026 6.05396C15.5264 6.05127 15.5492 6.04375 15.5698 6.03185C15.5905 6.01995 15.6084 6.00392 15.6226 5.98471C15.6368 5.9655 15.6469 5.94351 15.6524 5.92006L16.361 2.91305L16.3614 2.91118C16.4265 2.62539 16.4068 2.32489 16.3049 2.04696C16.2029 1.76902 16.0231 1.52587 15.7877 1.34766C15.5524 1.16944 15.2718 1.064 14.9809 1.04441C14.6899 1.02482 14.4013 1.09194 14.151 1.23745ZM5.58399 7.70237C5.58381 7.74172 5.5949 7.78014 5.61594 7.81306L6.76607 9.60548C6.78232 9.63084 6.80402 9.65219 6.82961 9.66801C6.8552 9.68384 6.88405 9.69374 6.91409 9.69701C6.94413 9.70028 6.97462 9.69684 7.00337 9.68693C7.03213 9.67703 7.05844 9.6609 7.08042 9.63971L8.5797 8.19611C8.58447 8.19112 8.58895 8.18585 8.59311 8.18033C8.6172 8.15205 8.63334 8.1179 8.63986 8.08147C8.64638 8.04504 8.64303 8.00767 8.63016 7.97328C8.61729 7.93889 8.59537 7.90874 8.56671 7.88599C8.53804 7.86324 8.50368 7.84874 8.46724 7.84399L7.3662 7.69917C7.58332 6.92733 8.03153 6.2378 8.64977 5.72447C9.26802 5.21115 10.0262 4.899 10.8212 4.83052C10.8484 4.82858 10.875 4.82123 10.8995 4.8089C10.9241 4.79657 10.9459 4.77951 10.9639 4.75871C10.9819 4.7379 10.9956 4.71378 11.0043 4.68775C11.013 4.66171 11.0164 4.63428 11.0144 4.60707C11.0124 4.57985 11.005 4.55338 10.9926 4.52921C10.9803 4.50504 10.9632 4.48366 10.9424 4.4663C10.9216 4.44895 10.8975 4.43597 10.8715 4.42812C10.8455 4.42028 10.8182 4.41772 10.791 4.42061C9.65122 4.5251 8.59181 5.07551 7.84283 5.95235C7.42719 6.44603 7.12479 7.02448 6.95748 7.6459L5.81863 7.49612C5.77976 7.49107 5.74011 7.49733 5.70436 7.51414C5.66861 7.53096 5.63827 7.55763 5.61693 7.59099C5.5956 7.62435 5.58417 7.66301 5.58399 7.70237Z" fill="#1E3643"/>
</svg>
